<?xml version="1.0" encoding="UTF-8" standalone="no"?>
<svg width="962px" height="510px" viewBox="0 0 962 510" version="1.1" xmlns="http://www.w3.org/2000/svg" xmlns:xlink="http://www.w3.org/1999/xlink">
    <!-- Generator: Sketch 3.8.3 (29802) - http://www.bohemiancoding.com/sketch -->
    <title>bike</title>
    <desc>Created with Sketch.</desc>
    <defs>
        <polygon id="path-1" points="350.061596 277.970082 661.188311 280.18065 616.860964 329.171756 290.47013 329.171756"></polygon>
        <mask id="mask-2" maskContentUnits="userSpaceOnUse" maskUnits="objectBoundingBox" x="0" y="0" width="370.718181" height="51.2016732" fill="white">
            <use xlink:href="#path-1"></use>
        </mask>
    </defs>
    <g id="Page-1" stroke="none" stroke-width="1" fill="none" fill-rule="evenodd">
        <g id="Artboard-1" transform="translate(-9.000000, -235.000000)" fill="#FFFFFF">
            <g id="bike" transform="translate(9.000000, 235.000000)">
                <rect id="Rectangle-4" x="258.016185" y="21.15525" width="139.017341" height="35.6298948" rx="17"></rect>
                <rect id="Rectangle-4-Copy-3" transform="translate(339.904076, 107.459171) rotate(-285.000000) translate(-339.904076, -107.459171) " x="270.395405" y="89.6442238" width="139.017341" height="35.6298948" rx="17"></rect>
                <rect id="Rectangle-4-Copy-4" transform="translate(691.377321, 165.306460) rotate(-292.000000) translate(-691.377321, -165.306460) " x="524.63965" y="147.491513" width="333.475342" height="35.6298948" rx="17"></rect>
                <polygon id="Rectangle-4-Copy-2" points="338.090173 148.08675 554.381743 148.08675 517.078665 183.716645 338.090173 183.716645"></polygon>
                <rect id="Rectangle-4-Copy" x="606.115607" y="0" width="130.120231" height="35.6298948" rx="17"></rect>
                <use id="Rectangle-3" stroke="#979797" mask="url(#mask-2)" stroke-width="2" transform="translate(475.829220, 303.570919) rotate(-42.000000) translate(-475.829220, -303.570919) " xlink:href="#path-1"></use>
                <g id="Wheel" transform="translate(0.000000, 93.528474)">
                    <path d="M414.337335,234.186841 C401.567647,336.920733 314.04253,416.424395 207.969942,416.424395 C93.1113147,416.424395 0,323.204619 0,208.212198 C0,93.2197761 93.1113147,0 207.969942,0 C307.708203,0 391.048047,70.2917562 411.261848,164.093213 L373.196055,196.034206 C366.701433,110.66716 295.457334,43.4239342 208.526012,43.4239342 C117.314749,43.4239342 43.3734104,117.451404 43.3734104,208.768915 C43.3734104,300.086426 117.314749,374.113895 208.526012,374.113895 C273.060758,374.113895 328.950191,337.055793 356.121904,283.035376 L414.337336,234.186829 Z" id="Combined-Shape"></path>
                </g>
                <g id="Wheel-Copy" transform="translate(754.500000, 296.999132) rotate(-180.000000) translate(-754.500000, -296.999132) translate(547.000000, 88.499132)">
                    <path d="M414.337335,234.186841 C401.567647,336.920733 314.04253,416.424395 207.969942,416.424395 C93.1113147,416.424395 2.27373675e-13,323.204619 2.27373675e-13,208.212198 C2.27373675e-13,93.2197761 93.1113147,0 207.969942,0 C307.708203,0 391.048047,70.2917562 411.261848,164.093213 L373.196055,196.034206 C366.701433,110.66716 295.457334,43.4239342 208.526012,43.4239342 C117.314749,43.4239342 43.3734104,117.451404 43.3734104,208.768915 C43.3734104,300.086426 117.314749,374.113895 208.526012,374.113895 C273.060758,374.113895 328.950191,337.055793 356.121904,283.035376 L414.337336,234.186829 Z" id="Combined-Shape"></path>
                </g>
            </g>
        </g>
    </g>
</svg>